<?xml version="1.0" encoding="UTF-8" standalone="no"?>
<!DOCTYPE svg PUBLIC "-//W3C//DTD SVG 1.0//EN" "http://www.w3.org/TR/2001/REC-SVG-20010904/DTD/svg10.dtd">
<!-- Generated by Microsoft Visio 11.0, SVG Export, v1.0 fisico.svg Page-1 -->
<svg xmlns="http://www.w3.org/2000/svg" xmlns:v="http://schemas.microsoft.com/visio/2003/SVGExtensions/" width="8.26772in"
		height="11.6929in" viewBox="0 0 595.276 841.89" xml:space="preserve" color-interpolation-filters="sRGB" class="st14">
	<v:documentProperties v:langID="1033" v:viewMarkup="false"/>

	<style type="text/css">
	<![CDATA[
		.st1 {fill:#ffffff;stroke:#000000;stroke-linecap:round;stroke-linejoin:round;stroke-width:0.24}
		.st2 {fill:#000000;font-family:Courier New;font-size:0.625008em}
		.st3 {fill:none;stroke:none;stroke-linecap:round;stroke-linejoin:round;stroke-width:0.72}
		.st4 {fill:#000080;font-family:Arial;font-size:0.666664em;font-style:italic;font-weight:bold}
		.st5 {fill:#000000;font-family:Arial;font-size:0.708344em}
		.st6 {fill:#000000;font-family:Arial;font-size:0.666664em}
		.st7 {marker-end:url(#mrkr42-45);marker-start:url(#mrkr13-43);stroke:#000000;stroke-linecap:round;stroke-linejoin:round;stroke-width:0.24}
		.st8 {fill:#000000;fill-opacity:1;stroke:#000000;stroke-opacity:1;stroke-width:0.08695652173913}
		.st9 {marker-end:url(#mrkr4-67);marker-start:url(#mrkr10-65);stroke:#000000;stroke-linecap:round;stroke-linejoin:round;stroke-width:0.24}
		.st10 {fill:#000080;font-family:Arial;font-size:0.708344em;font-style:italic;font-weight:bold}
		.st11 {fill:#000000;font-family:Arial;font-size:0.625008em}
		.st12 {marker-end:url(#mrkr4-276);marker-start:url(#mrkr42-274);stroke:#000000;stroke-linecap:round;stroke-linejoin:round;stroke-width:0.24}
		.st13 {font-size:1em}
		.st14 {fill:none;fill-rule:evenodd;font-size:12;overflow:visible;stroke-linecap:square;stroke-miterlimit:3}
	]]>
	</style>

	<defs id="Markers">
		<g id="lend13">
			<path d="M 3 1 L 0 0 L 3 -1 L 3 1 " style="stroke:none"/>
		</g>
		<marker id="mrkr13-43" class="st8" v:arrowType="13" v:arrowSize="2" v:setback="33" refX="33" orient="auto"
				markerUnits="strokeWidth">
			<use xlink:href="#lend13" transform="scale(11.5) "/>
		</marker>
		<g id="lend42">
			<path
					d="M 7.3757E-008 0.75 C -0.414213 0.75 -0.75 0.414214 -0.75 1.58051E-007 -0.75 -0.414213 -0.414214 -0.75 -7.3757E-008 -0.75 0.414214 -0.75 0.75 -0.414214 0.75 -4.42542E-007 0.75 0.414213 0.414214 0.75 6.11129E-007 0.75 Z "
					style="stroke:none"/>
		</g>
		<marker id="mrkr42-45" class="st8" v:arrowType="42" v:arrowSize="2" v:setback="7.125" refX="-7.125" orient="auto"
				markerUnits="strokeWidth">
			<use xlink:href="#lend42" transform="scale(-11.5,-11.5) "/>
		</marker>
		<g id="lend10">
			<path
					d="M 0 0.75 C -0.414214 0.75 -0.75 0.414214 -0.75 0 -0.75 -0.414214 -0.414214 -0.75 0 -0.75 0.414214 -0.75 0.75 -0.414214 0.75 0 0.75 0.414214 0.414214 0.75 0 0.75 Z "
					style="stroke:none"/>
		</g>
		<marker id="mrkr10-65" class="st8" v:arrowType="10" v:arrowSize="2" v:setback="7.125" refX="7.125" orient="auto"
				markerUnits="strokeWidth">
			<use xlink:href="#lend10" transform="scale(11.5) "/>
		</marker>
		<g id="lend4">
			<path d="M 2 1 L 0 0 L 2 -1 L 2 1 " style="stroke:none"/>
		</g>
		<marker id="mrkr4-67" class="st8" v:arrowType="4" v:arrowSize="2" v:setback="23" refX="-23" orient="auto"
				markerUnits="strokeWidth">
			<use xlink:href="#lend4" transform="scale(-11.5,-11.5) "/>
		</marker>
		<marker id="mrkr42-274" class="st8" v:arrowType="42" v:arrowSize="2" v:setback="7.125" refX="7.125" orient="auto"
				markerUnits="strokeWidth">
			<use xlink:href="#lend42" transform="scale(11.5) "/>
		</marker>
		<marker id="mrkr4-276" class="st8" v:arrowType="4" v:arrowSize="2" v:setback="21.5" refX="-21.5" orient="auto"
				markerUnits="strokeWidth">
			<use xlink:href="#lend4" transform="scale(-11.5,-11.5) "/>
		</marker>
	</defs>
	<g v:mID="0" v:index="1" v:groupContext="foregroundPage">
		<title>Page-1</title>
		<v:pageProperties v:drawingScale="0.0393701" v:pageScale="0.0393701" v:drawingUnits="24" v:shadowOffsetX="8.50394"
				v:shadowOffsetY="-8.50394"/>
		<g id="shape1-1" v:mID="1" v:groupContext="shape" transform="translate(41.1024,-762.581)">
			<title>Byte or variable</title>
			<desc>nodes</desc>
			<v:userDefs>
				<v:ud v:nameU="visVersion" v:val="VT0(11):26"/>
			</v:userDefs>
			<v:textBlock v:margins="rect(1,1,1,1)" v:tabSpace="42.5197"/>
			<v:textRect cx="19.1339" cy="827.747" width="38.27" height="28.2848"/>
			<rect x="0" y="813.605" width="38.2677" height="28.2848" class="st1"/>
			<text x="7.87" y="830.02" class="st2" v:langID="1024"><v:paragraph v:horizAlign="1"/><v:tabList/>nodes</text>		</g>
		<g id="shape2-4" v:mID="2" v:groupContext="shape" transform="translate(39.685,-799.37)">
			<title>Sheet.2</title>
			<desc>Graph HEAD</desc>
			<v:textBlock v:margins="rect(1,1,1,1)" v:tabSpace="42.5197"/>
			<v:textRect cx="25.5118" cy="836.22" width="51.03" height="11.3386"/>
			<rect x="0" y="830.551" width="51.0236" height="11.3386" class="st3"/>
			<text x="1.28" y="838.62" class="st4" v:langID="1046"><v:paragraph v:horizAlign="1"/><v:tabList/>Graph HEAD</text>		</g>
		<g id="shape3-7" v:mID="3" v:groupContext="shape" transform="translate(79.3701,-762.52)">
			<title>Byte or variable.3</title>
			<desc>currentNode</desc>
			<v:userDefs>
				<v:ud v:nameU="visVersion" v:val="VT0(11):26"/>
			</v:userDefs>
			<v:textBlock v:margins="rect(1,1,1,1)" v:tabSpace="42.5197"/>
			<v:textRect cx="28.3465" cy="827.747" width="56.7" height="28.2848"/>
			<rect x="0" y="813.605" width="56.6929" height="28.2848" class="st1"/>
			<text x="3.6" y="830.02" class="st2" v:langID="1024"><v:paragraph v:horizAlign="1"/><v:tabList/>currentNode</text>		</g>
		<g id="shape4-10" v:mID="4" v:groupContext="shape" transform="translate(136.063,-762.581)">
			<title>Byte or variable.4</title>
			<desc>delData</desc>
			<v:userDefs>
				<v:ud v:nameU="visVersion" v:val="VT0(11):26"/>
			</v:userDefs>
			<v:textBlock v:margins="rect(1,1,1,1)" v:tabSpace="42.5197"/>
			<v:textRect cx="19.1339" cy="827.747" width="38.27" height="28.2848"/>
			<rect x="0" y="813.605" width="38.2677" height="28.2848" class="st1"/>
			<text x="3.37" y="830.02" class="st2" v:langID="1024"><v:paragraph v:horizAlign="1"/><v:tabList/>delData</text>		</g>
		<g id="shape5-13" v:mID="5" v:groupContext="shape" transform="translate(174.331,-762.52)">
			<title>Byte or variable.5</title>
			<desc>nOfNodes</desc>
			<v:userDefs>
				<v:ud v:nameU="visVersion" v:val="VT0(11):26"/>
			</v:userDefs>
			<v:textBlock v:margins="rect(1,1,1,1)" v:tabSpace="42.5197"/>
			<v:textRect cx="19.1339" cy="827.747" width="38.27" height="28.2848"/>
			<rect x="0" y="813.605" width="38.2677" height="28.2848" class="st1"/>
			<text x="1.12" y="830.02" class="st2" v:langID="1024"><v:paragraph v:horizAlign="1"/><v:tabList/>nOfNodes</text>		</g>
		<g id="shape6-16" v:mID="6" v:groupContext="shape" transform="translate(212.598,-762.581)">
			<title>Byte or variable.6</title>
			<desc>nOfLinks</desc>
			<v:userDefs>
				<v:ud v:nameU="visVersion" v:val="VT0(11):26"/>
			</v:userDefs>
			<v:textBlock v:margins="rect(1,1,1,1)" v:tabSpace="42.5197"/>
			<v:textRect cx="19.1339" cy="827.747" width="38.27" height="28.2848"/>
			<rect x="0" y="813.605" width="38.2677" height="28.2848" class="st1"/>
			<text x="1.12" y="830.02" class="st2" v:langID="1024"><v:paragraph v:horizAlign="1"/><v:tabList/>nOfLinks</text>		</g>
		<g id="shape7-19" v:mID="7" v:groupContext="shape" transform="translate(250.866,-762.52)">
			<title>Byte or variable.7</title>
			<desc>*nodesOld</desc>
			<v:userDefs>
				<v:ud v:nameU="visVersion" v:val="VT0(11):26"/>
			</v:userDefs>
			<v:textBlock v:margins="rect(1,1,1,1)" v:tabSpace="42.5197"/>
			<v:textRect cx="23.3858" cy="827.747" width="46.78" height="28.2848"/>
			<rect x="0" y="813.605" width="46.7717" height="28.2848" class="st1"/>
			<text x="3.12" y="830.02" class="st2" v:langID="1024"><v:paragraph v:horizAlign="1"/><v:tabList/>*nodesOld</text>		</g>
		<g id="shape8-22" v:mID="8" v:groupContext="shape" transform="translate(297.638,-762.581)">
			<title>Byte or variable.8</title>
			<desc>*linksOld</desc>
			<v:userDefs>
				<v:ud v:nameU="visVersion" v:val="VT0(11):26"/>
			</v:userDefs>
			<v:textBlock v:margins="rect(1,1,1,1)" v:tabSpace="42.5197"/>
			<v:textRect cx="22.6772" cy="827.747" width="45.36" height="28.2848"/>
			<rect x="0" y="813.605" width="45.3543" height="28.2848" class="st1"/>
			<text x="2.42" y="830.02" class="st2" v:langID="1024"><v:paragraph v:horizAlign="1"/><v:tabList/>*linksOld</text>		</g>
		<g id="shape10-25" v:mID="10" v:groupContext="shape" transform="translate(181.417,-805.039)">
			<title>Sheet.10</title>
			<desc>Del Function</desc>
			<v:textBlock v:margins="rect(1,1,1,1)" v:tabSpace="42.5197"/>
			<v:textRect cx="25.5118" cy="836.22" width="51.03" height="11.3386"/>
			<rect x="0" y="830.551" width="51.0236" height="11.3386" class="st3"/>
			<text x="1.64" y="838.77" class="st5" v:langID="1046"><v:paragraph v:horizAlign="1"/><v:tabList/>Del Function</text>		</g>
		<g id="shape11-28" v:mID="11" v:groupContext="shape" transform="translate(39.685,-609.51)">
			<title>Byte or variable.11</title>
			<desc>pAnt</desc>
			<v:userDefs>
				<v:ud v:nameU="visVersion" v:val="VT0(11):26"/>
			</v:userDefs>
			<v:textBlock v:margins="rect(1,1,1,1)" v:tabSpace="42.5197"/>
			<v:textRect cx="19.1339" cy="827.747" width="38.27" height="28.2848"/>
			<rect x="0" y="813.605" width="38.2677" height="28.2848" class="st1"/>
			<text x="10.9" y="830.15" class="st6" v:langID="1046"><v:paragraph v:horizAlign="1"/><v:tabList/>pAnt</text>		</g>
		<g id="shape12-31" v:mID="12" v:groupContext="shape" transform="translate(77.9528,-609.449)">
			<title>Byte or variable.12</title>
			<desc>pValor</desc>
			<v:userDefs>
				<v:ud v:nameU="visVersion" v:val="VT0(11):26"/>
			</v:userDefs>
			<v:textBlock v:margins="rect(1,1,1,1)" v:tabSpace="42.5197"/>
			<v:textRect cx="19.1339" cy="827.747" width="38.27" height="28.2848"/>
			<rect x="0" y="813.605" width="38.2677" height="28.2848" class="st1"/>
			<text x="7.56" y="830.15" class="st6" v:langID="1046"><v:paragraph v:horizAlign="1"/><v:tabList/>pValor</text>		</g>
		<g id="shape13-34" v:mID="13" v:groupContext="shape" transform="translate(114.803,-609.51)">
			<title>Byte or variable.13</title>
			<desc>pProx</desc>
			<v:userDefs>
				<v:ud v:nameU="visVersion" v:val="VT0(11):26"/>
			</v:userDefs>
			<v:textBlock v:margins="rect(1,1,1,1)" v:tabSpace="42.5197"/>
			<v:textRect cx="19.1339" cy="827.747" width="38.27" height="28.2848"/>
			<rect x="0" y="813.605" width="38.2677" height="28.2848" class="st1"/>
			<text x="8.68" y="830.15" class="st6" v:langID="1046"><v:paragraph v:horizAlign="1"/><v:tabList/>pProx</text>		</g>
		<g id="shape15-37" v:mID="15" v:groupContext="shape" transform="translate(627.971,-472.933) rotate(36.4692)">
			<title>Sheet.15</title>
			<path d="M-3.63 834.85 L-3.79 834.53 C-6.66 828.33 -7.1 824.57 -5.29 819.33 C-3.14 813.12 2.19 804.82 9.39 803.25 C16.41
						 801.72 25.23 806.61 30.6 812.1 C34.07 815.66 36.11 819.47 35.12 824.17 C33.88 830.03 27.94 837.26 25.19
						 840.36 L24.95 840.63" class="st7"/>
		</g>
		<g id="shape16-46" v:mID="16" v:groupContext="shape" transform="translate(-432.38,-472.933) rotate(-36.4692) scale(-1,1)">
			<title>Sheet.16</title>
			<path d="M-3.63 834.85 L-3.79 834.53 C-6.66 828.33 -7.1 824.57 -5.29 819.33 C-3.14 813.12 2.19 804.82 9.39 803.25 C16.41
						 801.72 25.23 806.61 30.6 812.1 C34.07 815.66 36.11 819.47 35.12 824.17 C33.88 830.03 27.94 837.26 25.19
						 840.36 L24.95 840.63" class="st7"/>
		</g>
		<g id="shape17-53" v:mID="17" v:groupContext="shape" transform="translate(34.0157,-694.488)">
			<title>Byte or variable.17</title>
			<desc>pOrigemLista</desc>
			<v:userDefs>
				<v:ud v:nameU="visVersion" v:val="VT0(11):26"/>
			</v:userDefs>
			<v:textBlock v:margins="rect(1,1,1,1)" v:tabSpace="42.5197"/>
			<v:textRect cx="31.1811" cy="827.747" width="62.37" height="28.2848"/>
			<rect x="0" y="813.605" width="62.3622" height="28.2848" class="st1"/>
			<text x="4.17" y="830.02" class="st2" v:langID="1024"><v:paragraph v:horizAlign="1"/><v:tabList/>pOrigemLista</text>		</g>
		<g id="shape18-56" v:mID="18" v:groupContext="shape" transform="translate(96.378,-694.55)">
			<title>Byte or variable.18</title>
			<desc>pFimLista</desc>
			<v:userDefs>
				<v:ud v:nameU="visVersion" v:val="VT0(11):26"/>
			</v:userDefs>
			<v:textBlock v:margins="rect(1,1,1,1)" v:tabSpace="42.5197"/>
			<v:textRect cx="22.6772" cy="827.747" width="45.36" height="28.2848"/>
			<rect x="0" y="813.605" width="45.3543" height="28.2848" class="st1"/>
			<text x="2.42" y="830.02" class="st2" v:langID="1024"><v:paragraph v:horizAlign="1"/><v:tabList/>pFimLista</text>		</g>
		<g id="shape19-59" v:mID="19" v:groupContext="shape" transform="translate(882.644,-118.89) rotate(76.8353)">
			<title>Pointer (1-D).19</title>
			<v:userDefs>
				<v:ud v:nameU="visVersion" v:val="VT0(11):26"/>
			</v:userDefs>
			<v:textBlock v:margins="rect(1,1,1,1)" v:tabSpace="42.5197"/>
			<path d="M1.71 841.89 L2.07 841.89 L41.99 841.89" class="st9"/>
		</g>
		<g id="shape20-68" v:mID="20" v:groupContext="shape" transform="translate(141.732,-694.488)">
			<title>Byte or variable.20</title>
			<desc>pElemCorr</desc>
			<v:userDefs>
				<v:ud v:nameU="visVersion" v:val="VT0(11):26"/>
			</v:userDefs>
			<v:textBlock v:margins="rect(1,1,1,1)" v:tabSpace="42.5197"/>
			<v:textRect cx="23.3858" cy="827.747" width="46.78" height="28.2848"/>
			<rect x="0" y="813.605" width="46.7717" height="28.2848" class="st1"/>
			<text x="3.12" y="830.02" class="st2" v:langID="1024"><v:paragraph v:horizAlign="1"/><v:tabList/>pElemCorr</text>		</g>
		<g id="shape21-71" v:mID="21" v:groupContext="shape" transform="translate(187.087,-694.55)">
			<title>Byte or variable.21</title>
			<desc>numElem</desc>
			<v:userDefs>
				<v:ud v:nameU="visVersion" v:val="VT0(11):26"/>
			</v:userDefs>
			<v:textBlock v:margins="rect(1,1,1,1)" v:tabSpace="42.5197"/>
			<v:textRect cx="19.8425" cy="827.747" width="39.69" height="28.2848"/>
			<rect x="0" y="813.605" width="39.685" height="28.2848" class="st1"/>
			<text x="4.1" y="830.02" class="st2" v:langID="1024"><v:paragraph v:horizAlign="1"/><v:tabList/>numElem</text>		</g>
		<g id="shape22-74" v:mID="22" v:groupContext="shape" transform="translate(226.772,-694.519)">
			<title>Byte or variable.22</title>
			<desc>pValor</desc>
			<v:userDefs>
				<v:ud v:nameU="visVersion" v:val="VT0(11):26"/>
			</v:userDefs>
			<v:textBlock v:margins="rect(1,1,1,1)" v:tabSpace="42.5197"/>
			<v:textRect cx="19.8425" cy="827.747" width="39.69" height="28.2848"/>
			<rect x="0" y="813.605" width="39.685" height="28.2848" class="st1"/>
			<text x="6.35" y="830.02" class="st2" v:langID="1024"><v:paragraph v:horizAlign="1"/><v:tabList/>pValor</text>		</g>
		<g id="shape9-77" v:mID="9" v:groupContext="shape" transform="translate(-127.056,-625.45) rotate(-26.5651)">
			<title>Pointer (1-D)</title>
			<v:userDefs>
				<v:ud v:nameU="visVersion" v:val="VT0(11):26"/>
			</v:userDefs>
			<v:textBlock v:margins="rect(1,1,1,1)" v:tabSpace="42.5197"/>
			<path d="M1.71 841.89 L2.07 841.89 L32.51 841.89" class="st9"/>
		</g>
		<g id="shape23-84" v:mID="23" v:groupContext="shape" transform="translate(-442.235,-535.778) rotate(-45)">
			<title>Pointer (1-D).23</title>
			<v:userDefs>
				<v:ud v:nameU="visVersion" v:val="VT0(11):26"/>
			</v:userDefs>
			<v:textBlock v:margins="rect(1,1,1,1)" v:tabSpace="42.5197"/>
			<path d="M1.71 841.89 L2.07 841.89 L34.57 841.89" class="st9"/>
		</g>
		<g id="shape24-91" v:mID="24" v:groupContext="shape" transform="translate(283.465,-725.669)">
			<title>Sheet.24</title>
			<desc>Del Function</desc>
			<v:textBlock v:margins="rect(1,1,1,1)" v:tabSpace="42.5197"/>
			<v:textRect cx="25.5118" cy="836.22" width="51.03" height="11.3386"/>
			<rect x="0" y="830.551" width="51.0236" height="11.3386" class="st3"/>
			<text x="1.64" y="838.77" class="st5" v:langID="1046"><v:paragraph v:horizAlign="1"/><v:tabList/>Del Function</text>		</g>
		<g id="shape25-94" v:mID="25" v:groupContext="shape" transform="translate(73.7008,-458.425)">
			<title>Byte or variable.25</title>
			<desc>pAnt</desc>
			<v:userDefs>
				<v:ud v:nameU="visVersion" v:val="VT0(11):26"/>
			</v:userDefs>
			<v:textBlock v:margins="rect(1,1,1,1)" v:tabSpace="42.5197"/>
			<v:textRect cx="19.1339" cy="827.747" width="38.27" height="28.2848"/>
			<rect x="0" y="813.605" width="38.2677" height="28.2848" class="st1"/>
			<text x="10.9" y="830.15" class="st6" v:langID="1046"><v:paragraph v:horizAlign="1"/><v:tabList/>pAnt</text>		</g>
		<g id="shape26-97" v:mID="26" v:groupContext="shape" transform="translate(111.969,-458.363)">
			<title>Byte or variable.26</title>
			<desc>pValor</desc>
			<v:userDefs>
				<v:ud v:nameU="visVersion" v:val="VT0(11):26"/>
			</v:userDefs>
			<v:textBlock v:margins="rect(1,1,1,1)" v:tabSpace="42.5197"/>
			<v:textRect cx="19.1339" cy="827.747" width="38.27" height="28.2848"/>
			<rect x="0" y="813.605" width="38.2677" height="28.2848" class="st1"/>
			<text x="7.56" y="830.15" class="st6" v:langID="1046"><v:paragraph v:horizAlign="1"/><v:tabList/>pValor</text>		</g>
		<g id="shape27-100" v:mID="27" v:groupContext="shape" transform="translate(148.819,-458.425)">
			<title>Byte or variable.27</title>
			<desc>pProx</desc>
			<v:userDefs>
				<v:ud v:nameU="visVersion" v:val="VT0(11):26"/>
			</v:userDefs>
			<v:textBlock v:margins="rect(1,1,1,1)" v:tabSpace="42.5197"/>
			<v:textRect cx="19.1339" cy="827.747" width="38.27" height="28.2848"/>
			<rect x="0" y="813.605" width="38.2677" height="28.2848" class="st1"/>
			<text x="8.68" y="830.15" class="st6" v:langID="1046"><v:paragraph v:horizAlign="1"/><v:tabList/>pProx</text>		</g>
		<g id="shape29-103" v:mID="29" v:groupContext="shape" transform="translate(661.987,-321.848) rotate(36.4692)">
			<title>Sheet.29</title>
			<path d="M-3.63 834.85 L-3.79 834.53 C-6.66 828.33 -7.1 824.57 -5.29 819.33 C-3.14 813.12 2.19 804.82 9.39 803.25 C16.41
						 801.72 25.23 806.61 30.6 812.1 C34.07 815.66 36.11 819.47 35.12 824.17 C33.88 830.03 27.94 837.26 25.19
						 840.36 L24.95 840.63" class="st7"/>
		</g>
		<g id="shape30-110" v:mID="30" v:groupContext="shape" transform="translate(-398.365,-321.848) rotate(-36.4692) scale(-1,1)">
			<title>Sheet.30</title>
			<path d="M-3.63 834.85 L-3.79 834.53 C-6.66 828.33 -7.1 824.57 -5.29 819.33 C-3.14 813.12 2.19 804.82 9.39 803.25 C16.41
						 801.72 25.23 806.61 30.6 812.1 C34.07 815.66 36.11 819.47 35.12 824.17 C33.88 830.03 27.94 837.26 25.19
						 840.36 L24.95 840.63" class="st7"/>
		</g>
		<g id="shape31-117" v:mID="31" v:groupContext="shape" transform="translate(68.0315,-543.403)">
			<title>Byte or variable.31</title>
			<desc>pOrigemLista</desc>
			<v:userDefs>
				<v:ud v:nameU="visVersion" v:val="VT0(11):26"/>
			</v:userDefs>
			<v:textBlock v:margins="rect(1,1,1,1)" v:tabSpace="42.5197"/>
			<v:textRect cx="31.1811" cy="827.747" width="62.37" height="28.2848"/>
			<rect x="0" y="813.605" width="62.3622" height="28.2848" class="st1"/>
			<text x="4.17" y="830.02" class="st2" v:langID="1024"><v:paragraph v:horizAlign="1"/><v:tabList/>pOrigemLista</text>		</g>
		<g id="shape32-120" v:mID="32" v:groupContext="shape" transform="translate(130.394,-543.464)">
			<title>Byte or variable.32</title>
			<desc>pFimLista</desc>
			<v:userDefs>
				<v:ud v:nameU="visVersion" v:val="VT0(11):26"/>
			</v:userDefs>
			<v:textBlock v:margins="rect(1,1,1,1)" v:tabSpace="42.5197"/>
			<v:textRect cx="22.6772" cy="827.747" width="45.36" height="28.2848"/>
			<rect x="0" y="813.605" width="45.3543" height="28.2848" class="st1"/>
			<text x="2.42" y="830.02" class="st2" v:langID="1024"><v:paragraph v:horizAlign="1"/><v:tabList/>pFimLista</text>		</g>
		<g id="shape33-123" v:mID="33" v:groupContext="shape" transform="translate(916.659,32.1955) rotate(76.8353)">
			<title>Pointer (1-D).33</title>
			<v:userDefs>
				<v:ud v:nameU="visVersion" v:val="VT0(11):26"/>
			</v:userDefs>
			<v:textBlock v:margins="rect(1,1,1,1)" v:tabSpace="42.5197"/>
			<path d="M1.71 841.89 L2.07 841.89 L41.99 841.89" class="st9"/>
		</g>
		<g id="shape34-130" v:mID="34" v:groupContext="shape" transform="translate(175.748,-543.403)">
			<title>Byte or variable.34</title>
			<desc>pElemCorr</desc>
			<v:userDefs>
				<v:ud v:nameU="visVersion" v:val="VT0(11):26"/>
			</v:userDefs>
			<v:textBlock v:margins="rect(1,1,1,1)" v:tabSpace="42.5197"/>
			<v:textRect cx="23.3858" cy="827.747" width="46.78" height="28.2848"/>
			<rect x="0" y="813.605" width="46.7717" height="28.2848" class="st1"/>
			<text x="3.12" y="830.02" class="st2" v:langID="1024"><v:paragraph v:horizAlign="1"/><v:tabList/>pElemCorr</text>		</g>
		<g id="shape35-133" v:mID="35" v:groupContext="shape" transform="translate(221.102,-543.464)">
			<title>Byte or variable.35</title>
			<desc>numElem</desc>
			<v:userDefs>
				<v:ud v:nameU="visVersion" v:val="VT0(11):26"/>
			</v:userDefs>
			<v:textBlock v:margins="rect(1,1,1,1)" v:tabSpace="42.5197"/>
			<v:textRect cx="19.8425" cy="827.747" width="39.69" height="28.2848"/>
			<rect x="0" y="813.605" width="39.685" height="28.2848" class="st1"/>
			<text x="4.1" y="830.02" class="st2" v:langID="1024"><v:paragraph v:horizAlign="1"/><v:tabList/>numElem</text>		</g>
		<g id="shape36-136" v:mID="36" v:groupContext="shape" transform="translate(260.787,-543.433)">
			<title>Byte or variable.36</title>
			<desc>pValor</desc>
			<v:userDefs>
				<v:ud v:nameU="visVersion" v:val="VT0(11):26"/>
			</v:userDefs>
			<v:textBlock v:margins="rect(1,1,1,1)" v:tabSpace="42.5197"/>
			<v:textRect cx="19.8425" cy="827.747" width="39.69" height="28.2848"/>
			<rect x="0" y="813.605" width="39.685" height="28.2848" class="st1"/>
			<text x="6.35" y="830.02" class="st2" v:langID="1024"><v:paragraph v:horizAlign="1"/><v:tabList/>pValor</text>		</g>
		<g id="shape37-139" v:mID="37" v:groupContext="shape" transform="translate(-311.841,-316.661) rotate(-45)">
			<title>Pointer (1-D).37</title>
			<v:userDefs>
				<v:ud v:nameU="visVersion" v:val="VT0(11):26"/>
			</v:userDefs>
			<v:textBlock v:margins="rect(1,1,1,1)" v:tabSpace="42.5197"/>
			<path d="M1.71 841.89 L2.07 841.89 L34.57 841.89" class="st9"/>
		</g>
		<g id="shape38-146" v:mID="38" v:groupContext="shape" transform="translate(308.976,-589.606)">
			<title>Sheet.38</title>
			<desc>Del Function</desc>
			<v:textBlock v:margins="rect(1,1,1,1)" v:tabSpace="42.5197"/>
			<v:textRect cx="25.5118" cy="836.22" width="51.03" height="11.3386"/>
			<rect x="0" y="830.551" width="51.0236" height="11.3386" class="st3"/>
			<text x="1.64" y="838.77" class="st5" v:langID="1046"><v:paragraph v:horizAlign="1"/><v:tabList/>Del Function</text>		</g>
		<g id="shape14-149" v:mID="14" v:groupContext="shape" transform="translate(-691.939,-96.5973) rotate(-73.5554) scale(-1,1)">
			<title>Pointer (1-D).14</title>
			<v:userDefs>
				<v:ud v:nameU="visVersion" v:val="VT0(11):26"/>
			</v:userDefs>
			<v:textBlock v:margins="rect(1,1,1,1)" v:tabSpace="42.5197"/>
			<path d="M1.71 841.89 L2.07 841.89 L59.57 841.89" class="st9"/>
		</g>
		<g id="shape41-156" v:mID="41" v:groupContext="shape" transform="translate(85.0394,-394.077)">
			<title>Byte or variable.41</title>
			<desc>data</desc>
			<v:userDefs>
				<v:ud v:nameU="visVersion" v:val="VT0(11):26"/>
			</v:userDefs>
			<v:textBlock v:margins="rect(1,1,1,1)" v:tabSpace="42.5197"/>
			<v:textRect cx="13.4646" cy="827.747" width="26.93" height="28.2848"/>
			<rect x="0" y="813.605" width="26.9291" height="28.2848" class="st1"/>
			<text x="4.47" y="830.02" class="st2" v:langID="1024"><v:paragraph v:horizAlign="1"/><v:tabList/>data</text>		</g>
		<g id="shape42-159" v:mID="42" v:groupContext="shape" transform="translate(111.969,-394.016)">
			<title>Byte or variable.42</title>
			<desc>links</desc>
			<v:userDefs>
				<v:ud v:nameU="visVersion" v:val="VT0(11):26"/>
			</v:userDefs>
			<v:textBlock v:margins="rect(1,1,1,1)" v:tabSpace="42.5197"/>
			<v:textRect cx="19.1339" cy="827.747" width="38.27" height="28.2848"/>
			<rect x="0" y="813.605" width="38.2677" height="28.2848" class="st1"/>
			<text x="7.87" y="830.02" class="st2" v:langID="1024"><v:paragraph v:horizAlign="1"/><v:tabList/>links</text>		</g>
		<g id="shape43-162" v:mID="43" v:groupContext="shape" transform="translate(148.819,-394.077)">
			<title>Byte or variable.43</title>
			<desc>delData</desc>
			<v:userDefs>
				<v:ud v:nameU="visVersion" v:val="VT0(11):26"/>
			</v:userDefs>
			<v:textBlock v:margins="rect(1,1,1,1)" v:tabSpace="42.5197"/>
			<v:textRect cx="19.1339" cy="827.747" width="38.27" height="28.2848"/>
			<rect x="0" y="813.605" width="38.2677" height="28.2848" class="st1"/>
			<text x="3.37" y="830.02" class="st2" v:langID="1024"><v:paragraph v:horizAlign="1"/><v:tabList/>delData</text>		</g>
		<g id="shape44-165" v:mID="44" v:groupContext="shape" transform="translate(972.174,362.032) rotate(89.0772)">
			<title>Pointer (1-D).44</title>
			<v:userDefs>
				<v:ud v:nameU="visVersion" v:val="VT0(11):26"/>
			</v:userDefs>
			<v:textBlock v:margins="rect(1,1,1,1)" v:tabSpace="42.5197"/>
			<path d="M1.71 841.89 L2.07 841.89 L38.48 841.89" class="st9"/>
		</g>
		<g id="shape45-172" v:mID="45" v:groupContext="shape" transform="translate(184.252,-389.764)">
			<title>Sheet.45</title>
			<desc>Node</desc>
			<v:textBlock v:margins="rect(1,1,1,1)" v:tabSpace="42.5197"/>
			<v:textRect cx="20.9055" cy="834.803" width="41.82" height="14.1732"/>
			<rect x="0" y="827.717" width="41.811" height="14.1732" class="st3"/>
			<text x="10.27" y="837.35" class="st10" v:langID="1046"><v:paragraph v:horizAlign="1"/><v:tabList/>Node</text>		</g>
		<g id="shape46-175" v:mID="46" v:groupContext="shape" transform="translate(59.5276,-253.762)">
			<title>Byte or variable.46</title>
			<desc>pAnt</desc>
			<v:userDefs>
				<v:ud v:nameU="visVersion" v:val="VT0(11):26"/>
			</v:userDefs>
			<v:textBlock v:margins="rect(1,1,1,1)" v:tabSpace="42.5197"/>
			<v:textRect cx="19.1339" cy="827.747" width="38.27" height="28.2848"/>
			<rect x="0" y="813.605" width="38.2677" height="28.2848" class="st1"/>
			<text x="10.9" y="830.15" class="st6" v:langID="1046"><v:paragraph v:horizAlign="1"/><v:tabList/>pAnt</text>		</g>
		<g id="shape47-178" v:mID="47" v:groupContext="shape" transform="translate(97.7953,-253.701)">
			<title>Byte or variable.47</title>
			<desc>pValor</desc>
			<v:userDefs>
				<v:ud v:nameU="visVersion" v:val="VT0(11):26"/>
			</v:userDefs>
			<v:textBlock v:margins="rect(1,1,1,1)" v:tabSpace="42.5197"/>
			<v:textRect cx="19.1339" cy="827.747" width="38.27" height="28.2848"/>
			<rect x="0" y="813.605" width="38.2677" height="28.2848" class="st1"/>
			<text x="7.56" y="830.15" class="st6" v:langID="1046"><v:paragraph v:horizAlign="1"/><v:tabList/>pValor</text>		</g>
		<g id="shape48-181" v:mID="48" v:groupContext="shape" transform="translate(134.646,-253.762)">
			<title>Byte or variable.48</title>
			<desc>pProx</desc>
			<v:userDefs>
				<v:ud v:nameU="visVersion" v:val="VT0(11):26"/>
			</v:userDefs>
			<v:textBlock v:margins="rect(1,1,1,1)" v:tabSpace="42.5197"/>
			<v:textRect cx="19.1339" cy="827.747" width="38.27" height="28.2848"/>
			<rect x="0" y="813.605" width="38.2677" height="28.2848" class="st1"/>
			<text x="8.68" y="830.15" class="st6" v:langID="1046"><v:paragraph v:horizAlign="1"/><v:tabList/>pProx</text>		</g>
		<g id="shape50-184" v:mID="50" v:groupContext="shape" transform="translate(648.522,-115.737) rotate(36.4692)">
			<title>Sheet.50</title>
			<path d="M-3.63 834.85 L-3.79 834.53 C-6.66 828.33 -7.1 824.57 -5.29 819.33 C-3.14 813.12 2.19 804.82 9.39 803.25 C16.41
						 801.72 25.23 806.61 30.6 812.1 C34.07 815.66 36.11 819.47 35.12 824.17 C33.88 830.03 27.94 837.26 25.19
						 840.36 L24.95 840.63" class="st7"/>
		</g>
		<g id="shape51-191" v:mID="51" v:groupContext="shape" transform="translate(-416.081,-117.185) rotate(-36.4692) scale(-1,1)">
			<title>Sheet.51</title>
			<path d="M-3.63 834.85 L-3.79 834.53 C-6.66 828.33 -7.1 824.57 -5.29 819.33 C-3.14 813.12 2.19 804.82 9.39 803.25 C16.41
						 801.72 25.23 806.61 30.6 812.1 C34.07 815.66 36.11 819.47 35.12 824.17 C33.88 830.03 27.94 837.26 25.19
						 840.36 L24.95 840.63" class="st7"/>
		</g>
		<g id="shape52-198" v:mID="52" v:groupContext="shape" transform="translate(175.748,-255.118)">
			<title>Sheet.52</title>
			<desc>List Element</desc>
			<v:textBlock v:margins="rect(1,1,1,1)" v:tabSpace="42.5197"/>
			<v:textRect cx="29.7638" cy="836.22" width="59.53" height="11.3386"/>
			<rect x="0" y="830.551" width="59.5276" height="11.3386" class="st3"/>
			<text x="4.5" y="838.77" class="st10" v:langID="1046"><v:paragraph v:horizAlign="1"/><v:tabList/>List Element</text>		</g>
		<g id="shape53-201" v:mID="53" v:groupContext="shape" transform="translate(59.5276,-188.504)">
			<title>Byte or variable.53</title>
			<desc>n1</desc>
			<v:userDefs>
				<v:ud v:nameU="visVersion" v:val="VT0(11):26"/>
			</v:userDefs>
			<v:textBlock v:margins="rect(1,1,1,1)" v:tabSpace="42.5197"/>
			<v:textRect cx="19.1339" cy="827.747" width="38.27" height="28.2848"/>
			<rect x="0" y="813.605" width="38.2677" height="28.2848" class="st1"/>
			<text x="14.62" y="830.02" class="st2" v:langID="1046"><v:paragraph v:horizAlign="1"/><v:tabList/>n1</text>		</g>
		<g id="shape54-204" v:mID="54" v:groupContext="shape" transform="translate(96.378,-188.566)">
			<title>Byte or variable.54</title>
			<desc>n2</desc>
			<v:userDefs>
				<v:ud v:nameU="visVersion" v:val="VT0(11):26"/>
			</v:userDefs>
			<v:textBlock v:margins="rect(1,1,1,1)" v:tabSpace="42.5197"/>
			<v:textRect cx="19.1339" cy="827.747" width="38.27" height="28.2848"/>
			<rect x="0" y="813.605" width="38.2677" height="28.2848" class="st1"/>
			<text x="14.62" y="830.02" class="st2" v:langID="1046"><v:paragraph v:horizAlign="1"/><v:tabList/>n2</text>		</g>
		<g id="shape55-207" v:mID="55" v:groupContext="shape" transform="translate(134.646,-188.535)">
			<title>Byte or variable.55</title>
			<desc>brother</desc>
			<v:userDefs>
				<v:ud v:nameU="visVersion" v:val="VT0(11):26"/>
			</v:userDefs>
			<v:textBlock v:margins="rect(1,1,1,1)" v:tabSpace="42.5197"/>
			<v:textRect cx="19.1339" cy="827.747" width="38.27" height="28.2848"/>
			<rect x="0" y="813.605" width="38.2677" height="28.2848" class="st1"/>
			<text x="7.24" y="830" class="st11" v:langID="1046"><v:paragraph v:horizAlign="1"/><v:tabList/>brother</text>		</g>
		<g id="shape56-210" v:mID="56" v:groupContext="shape" transform="translate(959.06,610.567) rotate(91.9092)">
			<title>Pointer (1-D).56</title>
			<v:userDefs>
				<v:ud v:nameU="visVersion" v:val="VT0(11):26"/>
			</v:userDefs>
			<v:textBlock v:margins="rect(1,1,1,1)" v:tabSpace="42.5197"/>
			<path d="M1.71 841.89 L2.07 841.89 L37.02 841.89" class="st9"/>
		</g>
		<g id="shape57-217" v:mID="57" v:groupContext="shape" transform="translate(167.244,-198.425)">
			<title>Sheet.57</title>
			<desc>Link</desc>
			<v:textBlock v:margins="rect(1,1,1,1)" v:tabSpace="42.5197"/>
			<v:textRect cx="17.0079" cy="833.386" width="34.02" height="17.0079"/>
			<rect x="0" y="824.882" width="34.0157" height="17.0079" class="st3"/>
			<text x="8.26" y="835.94" class="st10" v:langID="1046"><v:paragraph v:horizAlign="1"/><v:tabList/>Link</text>		</g>
		<g id="shape58-220" v:mID="58" v:groupContext="shape" transform="translate(191.339,-464.882)">
			<title>Sheet.58</title>
			<desc>List Element</desc>
			<v:textBlock v:margins="rect(1,1,1,1)" v:tabSpace="42.5197"/>
			<v:textRect cx="29.7638" cy="836.22" width="59.53" height="11.3386"/>
			<rect x="0" y="830.551" width="59.5276" height="11.3386" class="st3"/>
			<text x="4.5" y="838.77" class="st10" v:langID="1046"><v:paragraph v:horizAlign="1"/><v:tabList/>List Element</text>		</g>
		<g id="shape59-223" v:mID="59" v:groupContext="shape" transform="translate(155.906,-612.283)">
			<title>Sheet.59</title>
			<desc>List Element</desc>
			<v:textBlock v:margins="rect(1,1,1,1)" v:tabSpace="42.5197"/>
			<v:textRect cx="29.7638" cy="836.22" width="59.53" height="11.3386"/>
			<rect x="0" y="830.551" width="59.5276" height="11.3386" class="st3"/>
			<text x="4.5" y="838.77" class="st10" v:langID="1046"><v:paragraph v:horizAlign="1"/><v:tabList/>List Element</text>		</g>
		<g id="shape60-226" v:mID="60" v:groupContext="shape" transform="translate(31.1811,-328.819)">
			<title>Byte or variable.60</title>
			<desc>pOrigemLista</desc>
			<v:userDefs>
				<v:ud v:nameU="visVersion" v:val="VT0(11):26"/>
			</v:userDefs>
			<v:textBlock v:margins="rect(1,1,1,1)" v:tabSpace="42.5197"/>
			<v:textRect cx="31.1811" cy="827.747" width="62.37" height="28.2848"/>
			<rect x="0" y="813.605" width="62.3622" height="28.2848" class="st1"/>
			<text x="4.17" y="830.02" class="st2" v:langID="1024"><v:paragraph v:horizAlign="1"/><v:tabList/>pOrigemLista</text>		</g>
		<g id="shape61-229" v:mID="61" v:groupContext="shape" transform="translate(93.5433,-328.881)">
			<title>Byte or variable.61</title>
			<desc>pFimLista</desc>
			<v:userDefs>
				<v:ud v:nameU="visVersion" v:val="VT0(11):26"/>
			</v:userDefs>
			<v:textBlock v:margins="rect(1,1,1,1)" v:tabSpace="42.5197"/>
			<v:textRect cx="22.6772" cy="827.747" width="45.36" height="28.2848"/>
			<rect x="0" y="813.605" width="45.3543" height="28.2848" class="st1"/>
			<text x="2.42" y="830.02" class="st2" v:langID="1024"><v:paragraph v:horizAlign="1"/><v:tabList/>pFimLista</text>		</g>
		<g id="shape62-232" v:mID="62" v:groupContext="shape" transform="translate(931.087,701.229) rotate(107.998)">
			<title>Pointer (1-D).62</title>
			<v:userDefs>
				<v:ud v:nameU="visVersion" v:val="VT0(11):26"/>
			</v:userDefs>
			<v:textBlock v:margins="rect(1,1,1,1)" v:tabSpace="42.5197"/>
			<path d="M1.71 841.89 L2.07 841.89 L40.35 841.89" class="st9"/>
		</g>
		<g id="shape63-239" v:mID="63" v:groupContext="shape" transform="translate(138.898,-328.819)">
			<title>Byte or variable.63</title>
			<desc>pElemCorr</desc>
			<v:userDefs>
				<v:ud v:nameU="visVersion" v:val="VT0(11):26"/>
			</v:userDefs>
			<v:textBlock v:margins="rect(1,1,1,1)" v:tabSpace="42.5197"/>
			<v:textRect cx="23.3858" cy="827.747" width="46.78" height="28.2848"/>
			<rect x="0" y="813.605" width="46.7717" height="28.2848" class="st1"/>
			<text x="3.12" y="830.02" class="st2" v:langID="1024"><v:paragraph v:horizAlign="1"/><v:tabList/>pElemCorr</text>		</g>
		<g id="shape64-242" v:mID="64" v:groupContext="shape" transform="translate(184.252,-328.881)">
			<title>Byte or variable.64</title>
			<desc>numElem</desc>
			<v:userDefs>
				<v:ud v:nameU="visVersion" v:val="VT0(11):26"/>
			</v:userDefs>
			<v:textBlock v:margins="rect(1,1,1,1)" v:tabSpace="42.5197"/>
			<v:textRect cx="19.8425" cy="827.747" width="39.69" height="28.2848"/>
			<rect x="0" y="813.605" width="39.685" height="28.2848" class="st1"/>
			<text x="4.1" y="830.02" class="st2" v:langID="1024"><v:paragraph v:horizAlign="1"/><v:tabList/>numElem</text>		</g>
		<g id="shape65-245" v:mID="65" v:groupContext="shape" transform="translate(223.937,-328.85)">
			<title>Byte or variable.65</title>
			<desc>pValor</desc>
			<v:userDefs>
				<v:ud v:nameU="visVersion" v:val="VT0(11):26"/>
			</v:userDefs>
			<v:textBlock v:margins="rect(1,1,1,1)" v:tabSpace="42.5197"/>
			<v:textRect cx="19.8425" cy="827.747" width="39.69" height="28.2848"/>
			<rect x="0" y="813.605" width="39.685" height="28.2848" class="st1"/>
			<text x="6.35" y="830.02" class="st2" v:langID="1024"><v:paragraph v:horizAlign="1"/><v:tabList/>pValor</text>		</g>
		<g id="shape49-248" v:mID="49" v:groupContext="shape" transform="translate(958.028,497.541) rotate(89.1971)">
			<title>Pointer (1-D).49</title>
			<v:userDefs>
				<v:ud v:nameU="visVersion" v:val="VT0(11):26"/>
			</v:userDefs>
			<v:textBlock v:margins="rect(1,1,1,1)" v:tabSpace="42.5197"/>
			<path d="M1.71 841.89 L2.07 841.89 L45.05 841.89" class="st9"/>
		</g>
		<g id="shape28-255" v:mID="28" v:groupContext="shape" transform="translate(948.387,568.103) rotate(109.147)">
			<title>Pointer (1-D).28</title>
			<v:userDefs>
				<v:ud v:nameU="visVersion" v:val="VT0(11):26"/>
			</v:userDefs>
			<v:textBlock v:margins="rect(1,1,1,1)" v:tabSpace="42.5197"/>
			<path d="M1.71 841.89 L2.07 841.89 L61.46 841.89" class="st9"/>
		</g>
		<g id="shape66-262" v:mID="66" v:groupContext="shape" transform="translate(255.118,-700.157)">
			<title>Sheet.66</title>
			<desc>List Head</desc>
			<v:textBlock v:margins="rect(1,1,1,1)" v:tabSpace="42.5197"/>
			<v:textRect cx="36.8504" cy="831.969" width="73.71" height="19.8425"/>
			<rect x="0" y="822.047" width="73.7008" height="19.8425" class="st3"/>
			<text x="17.72" y="834.52" class="st10" v:langID="1046"><v:paragraph v:horizAlign="1"/><v:tabList/>List Head</text>		</g>
		<g id="shape67-265" v:mID="67" v:groupContext="shape" transform="translate(249.449,-327.402)">
			<title>Sheet.67</title>
			<desc>List Head</desc>
			<v:textBlock v:margins="rect(1,1,1,1)" v:tabSpace="42.5197"/>
			<v:textRect cx="36.8504" cy="831.969" width="73.71" height="19.8425"/>
			<rect x="0" y="822.047" width="73.7008" height="19.8425" class="st3"/>
			<text x="17.72" y="834.52" class="st10" v:langID="1046"><v:paragraph v:horizAlign="1"/><v:tabList/>List Head</text>		</g>
		<g id="shape68-268" v:mID="68" v:groupContext="shape" transform="translate(-537.361,468.586) rotate(-76.0543)">
			<title>Sheet.68</title>
			<path d="M1 674.09 L1.21 674.38 C18.96 699.61 26.89 731.62 39.42 760.34 C50.2 785.04 64.38 807.32 82.88 821.43 C92.75
						 828.95 103.84 834.16 118.57 837.57 C140.41 842.63 170.26 843.75 192.15 838.45 C207.66 834.7 219.18 827.72
						 228.25 819.05 C238.55 809.2 245.69 797.18 249.47 780.72 C258.75 740.32 247.79 673.18 223.06 671.94 L222.71
						 671.99" class="st12"/>
		</g>
		<g id="shape69-277" v:mID="69" v:groupContext="shape" transform="translate(-759.68,557.745) rotate(-84.7376)">
			<title>Sheet.69</title>
			<path d="M1.44 840.96 L1.74 840.77 C7.55 836.33 5.77 829.39 5.39 823.6 C4.34 807.64 13.97 800.46 23.53 792.05 C29.74
						 786.58 35.93 780.59 43.04 776.02 C65.22 761.79 96.39 761.43 130.64 756.57 C156.81 752.86 184.78 746.51 202.87
						 752.76 C217.35 757.77 225.5 770.86 231.16 788.58 C238.29 810.87 241.49 840.48 221.86 842.1 L221.5 842.09"
					class="st12"/>
		</g>
		<g id="shape70-284" v:mID="70" v:groupContext="shape" transform="translate(648.522,1330.38) rotate(-36.4692) scale(1,-1)">
			<title>Sheet.70</title>
			<path d="M-3.63 834.85 L-3.79 834.53 C-6.66 828.33 -7.1 824.57 -5.29 819.33 C-3.14 813.12 2.19 804.82 9.39 803.25 C16.41
						 801.72 25.23 806.61 30.6 812.1 C34.07 815.66 36.11 819.47 35.12 824.17 C33.88 830.03 27.94 837.26 25.19
						 840.36 L24.95 840.63" class="st7"/>
		</g>
		<g id="shape71-291" v:mID="71" v:groupContext="shape" transform="translate(289.134,-542.835)">
			<title>Sheet.71</title>
			<desc>List Head</desc>
			<v:textBlock v:margins="rect(1,1,1,1)" v:tabSpace="42.5197"/>
			<v:textRect cx="36.8504" cy="831.969" width="73.71" height="19.8425"/>
			<rect x="0" y="822.047" width="73.7008" height="19.8425" class="st3"/>
			<text x="17.72" y="834.52" class="st10" v:langID="1046"><v:paragraph v:horizAlign="1"/><v:tabList/>List Head</text>		</g>
		<g id="shape72-294" v:mID="72" v:groupContext="shape" transform="translate(920.961,-144.859) rotate(75.011)">
			<title>Sheet.72</title>
			<path d="M1.71 841.95 L2.07 841.97 C7.11 840.98 15.11 832.71 22 824.25 C72.4 762.37 63.33 690.76 74.98 652.4 C87.13 612.43
						 121.76 608.55 149.77 609.25 C167.67 609.69 182.86 612 201.7 617.08 C215.14 620.7 230.43 625.73 246.5 631.64
						 C266.48 638.99 287.66 647.7 301.27 653.46 C309.5 656.94 314.96 659.34 321.07 665 C329.51 672.82 339.19 686.88
						 341.44 698.38 C343.73 710.06 338.34 719.11 331.56 738.48 C321.85 766.18 309.26 815 307.18 836.38 L307.16
						 836.74" class="st12"/>
		</g>
		<g id="shape73-301" v:mID="73" v:groupContext="shape" transform="translate(-763.402,274.006) rotate(80.9605) scale(1,-1)">
			<title>Pointer (1-D).73</title>
			<v:userDefs>
				<v:ud v:nameU="visVersion" v:val="VT0(11):26"/>
			</v:userDefs>
			<v:textBlock v:margins="rect(1,1,1,1)" v:tabSpace="42.5197"/>
			<path d="M1.71 841.89 L2.07 841.89 L57.63 841.89" class="st9"/>
		</g>
		<g id="shape74-308" v:mID="74" v:groupContext="shape" transform="translate(-475.898,-404.049) rotate(-49.5879) scale(-1,1)">
			<title>Pointer (1-D).74</title>
			<v:userDefs>
				<v:ud v:nameU="visVersion" v:val="VT0(11):26"/>
			</v:userDefs>
			<v:textBlock v:margins="rect(1,1,1,1)" v:tabSpace="42.5197"/>
			<path d="M1.71 841.89 L2.07 841.89 L76.47 841.89" class="st9"/>
		</g>
		<g id="shape75-315" v:mID="75" v:groupContext="shape" transform="translate(-732.221,425.091) rotate(80.9605) scale(1,-1)">
			<title>Pointer (1-D).75</title>
			<v:userDefs>
				<v:ud v:nameU="visVersion" v:val="VT0(11):26"/>
			</v:userDefs>
			<v:textBlock v:margins="rect(1,1,1,1)" v:tabSpace="42.5197"/>
			<path d="M1.71 841.89 L2.07 841.89 L57.63 841.89" class="st9"/>
		</g>
		<g id="shape76-322" v:mID="76" v:groupContext="shape" transform="translate(-446.134,-252.963) rotate(-49.5879) scale(-1,1)">
			<title>Pointer (1-D).76</title>
			<v:userDefs>
				<v:ud v:nameU="visVersion" v:val="VT0(11):26"/>
			</v:userDefs>
			<v:textBlock v:margins="rect(1,1,1,1)" v:tabSpace="42.5197"/>
			<path d="M1.71 841.89 L2.07 841.89 L76.47 841.89" class="st9"/>
		</g>
		<g id="shape77-329" v:mID="77" v:groupContext="shape" transform="translate(-689.888,858.891) rotate(65.3231) scale(1,-1)">
			<title>Pointer (1-D).77</title>
			<v:userDefs>
				<v:ud v:nameU="visVersion" v:val="VT0(11):26"/>
			</v:userDefs>
			<v:textBlock v:margins="rect(1,1,1,1)" v:tabSpace="42.5197"/>
			<path d="M1.71 841.89 L2.07 841.89 L52.19 841.89" class="st9"/>
		</g>
		<g id="shape78-336" v:mID="78" v:groupContext="shape" transform="translate(-545.646,50.307) rotate(-57.2334) scale(-1,1)">
			<title>Pointer (1-D).78</title>
			<v:userDefs>
				<v:ud v:nameU="visVersion" v:val="VT0(11):26"/>
			</v:userDefs>
			<v:textBlock v:margins="rect(1,1,1,1)" v:tabSpace="42.5197"/>
			<path d="M1.71 841.89 L2.07 841.89 L58.64 841.89" class="st9"/>
		</g>
		<g id="shape80-343" v:mID="80" v:groupContext="shape" transform="translate(18.4252,-391.181)">
			<title>Byte or variable.80</title>
			<desc>Estrutura cliente</desc>
			<v:userDefs>
				<v:ud v:nameU="visVersion" v:val="VT0(11):26"/>
			</v:userDefs>
			<v:textBlock v:margins="rect(1,1,1,1)" v:tabSpace="42.5197"/>
			<v:textRect cx="21.2598" cy="827.717" width="42.52" height="28.3465"/>
			<rect x="0" y="813.543" width="42.5197" height="28.3465" class="st1"/>
			<text x="5.02" y="825.32" class="st6" v:langID="1046"><v:paragraph v:horizAlign="1"/><v:tabList/>Estrutura <tspan
						x="9.69" dy="1.2em" class="st13">cliente</tspan></text>		</g>
		<g id="shape81-347" v:mID="81" v:groupContext="shape" transform="translate(5.52018,1277.08) rotate(-174.289)">
			<title>Sheet.81</title>
			<path d="M1.71 841.89 L2.07 841.89 L22.97 841.89" class="st9"/>
		</g>
		<g id="shape82-354" v:mID="82" v:groupContext="shape" transform="translate(283.465,-807.874)">
			<title>Byte or variable.82</title>
			<desc>Estrutura cliente</desc>
			<v:userDefs>
				<v:ud v:nameU="visVersion" v:val="VT0(11):26"/>
			</v:userDefs>
			<v:textBlock v:margins="rect(1,1,1,1)" v:tabSpace="42.5197"/>
			<v:textRect cx="21.2598" cy="827.717" width="42.52" height="28.3465"/>
			<rect x="0" y="813.543" width="42.5197" height="28.3465" class="st1"/>
			<text x="5.02" y="825.32" class="st6" v:langID="1046"><v:paragraph v:horizAlign="1"/><v:tabList/>Estrutura <tspan
						x="9.69" dy="1.2em" class="st13">cliente</tspan></text>		</g>
		<g id="shape83-358" v:mID="83" v:groupContext="shape" transform="translate(340.157,-807.874)">
			<title>Byte or variable.83</title>
			<desc>Estrutura cliente</desc>
			<v:userDefs>
				<v:ud v:nameU="visVersion" v:val="VT0(11):26"/>
			</v:userDefs>
			<v:textBlock v:margins="rect(1,1,1,1)" v:tabSpace="42.5197"/>
			<v:textRect cx="21.2598" cy="827.717" width="42.52" height="28.3465"/>
			<rect x="0" y="813.543" width="42.5197" height="28.3465" class="st1"/>
			<text x="5.02" y="825.32" class="st6" v:langID="1046"><v:paragraph v:horizAlign="1"/><v:tabList/>Estrutura <tspan
						x="9.69" dy="1.2em" class="st13">cliente</tspan></text>		</g>
		<g id="shape40-362" v:mID="40" v:groupContext="shape" transform="translate(-143.847,-640.967) rotate(-33.6901)">
			<title>Pointer (1-D).40</title>
			<v:userDefs>
				<v:ud v:nameU="visVersion" v:val="VT0(11):26"/>
			</v:userDefs>
			<v:textBlock v:margins="rect(1,1,1,1)" v:tabSpace="42.5197"/>
			<path d="M1.71 841.89 L2.07 841.89 L40.47 841.89" class="st9"/>
		</g>
		<g id="shape39-369" v:mID="39" v:groupContext="shape" transform="translate(-301.21,-551.645) rotate(-43.4518)">
			<title>Pointer (1-D).39</title>
			<v:userDefs>
				<v:ud v:nameU="visVersion" v:val="VT0(11):26"/>
			</v:userDefs>
			<v:textBlock v:margins="rect(1,1,1,1)" v:tabSpace="42.5197"/>
			<path d="M1.71 841.89 L2.07 841.89 L31.57 841.89" class="st9"/>
		</g>
		<g id="shape79-376" v:mID="79" v:groupContext="shape" transform="translate(226.772,-405.354)">
			<title>Sheet.79</title>
			<desc>FDelData</desc>
			<v:textBlock v:margins="rect(1,1,1,1)" v:tabSpace="42.5197"/>
			<v:textRect cx="26.9291" cy="834.094" width="53.86" height="15.5906"/>
			<rect x="0" y="826.299" width="53.8583" height="15.5906" class="st3"/>
			<text x="8.97" y="836.64" class="st5" v:langID="1046"><v:paragraph v:horizAlign="1"/><v:tabList/>FDelData</text>		</g>
		<g id="shape84-379" v:mID="84" v:groupContext="shape" transform="translate(182.835,-413.858)">
			<title>Pointer (1-D).84</title>
			<v:userDefs>
				<v:ud v:nameU="visVersion" v:val="VT0(11):26"/>
			</v:userDefs>
			<v:textBlock v:margins="rect(1,1,1,1)" v:tabSpace="42.5197"/>
			<path d="M1.71 841.89 L2.07 841.89 L46.92 841.89" class="st9"/>
		</g>
	</g>
</svg>
